<?xml version="1.0" standalone="no"?>
<!DOCTYPE svg PUBLIC "-//W3C//DTD SVG 20010904//EN"
 "http://www.w3.org/TR/2001/REC-SVG-20010904/DTD/svg10.dtd">
<svg version="1.0" xmlns="http://www.w3.org/2000/svg"
 width="487.000000pt" height="487.000000pt" viewBox="0 0 487.000000 487.000000"
 preserveAspectRatio="xMidYMid meet">
<metadata>
Created by potrace 1.14, written by Peter Selinger 2001-2017
</metadata>
<g transform="translate(0.000000,487.000000) scale(0.100000,-0.100000)"
fill="#000000" stroke="none">
<path d="M2229 3857 c-13 -13 -55 -48 -94 -78 -38 -30 -79 -61 -90 -71 -26
-21 -105 -86 -125 -101 -8 -7 -93 -74 -188 -150 l-172 -139 6 -146 c3 -81 7
-171 9 -200 2 -29 7 -123 10 -210 4 -86 9 -160 12 -164 6 -12 20 -10 35 5 7 7
58 46 113 86 55 41 105 79 110 85 6 6 55 44 110 85 55 41 105 80 111 85 7 6
24 20 40 31 15 11 42 32 60 48 17 15 37 27 43 27 6 0 11 4 11 8 0 5 10 14 23
21 22 12 22 15 24 219 0 114 3 286 4 382 4 207 -1 226 -52 177z m24 -264 c-2
-131 -3 -290 -3 -354 0 -99 -3 -119 -19 -137 -10 -12 -23 -22 -29 -22 -8 0
-11 106 -10 353 l1 352 26 22 c14 12 28 22 31 23 3 0 4 -107 3 -237z m-89
-195 c-1 -189 -2 -348 -3 -354 0 -6 -12 -16 -26 -22 -21 -10 -25 -9 -26 6 0 9
-1 165 -2 347 l-2 329 24 29 c14 17 27 24 30 18 4 -6 6 -165 5 -353z m-87 220
c1 -33 -5 -49 -25 -70 -14 -16 -28 -28 -31 -28 -4 0 -6 20 -6 45 1 32 7 51 25
70 13 14 26 25 30 25 3 0 7 -19 7 -42z m-108 -139 c-32 -28 -39 -24 -39 25 0
37 5 48 28 64 l27 21 3 -46 c3 -36 -1 -48 -19 -64z m109 -94 c0 -80 3 -149 6
-154 5 -7 -32 -39 -129 -113 -5 -4 -47 -38 -93 -74 -46 -36 -86 -63 -89 -60
-3 2 -7 61 -8 130 -2 69 -6 130 -9 134 -9 14 13 36 109 111 50 39 95 74 100
79 6 4 30 23 55 42 25 19 47 38 48 43 9 18 10 -2 10 -138z m-174 89 c0 -39 -5
-50 -27 -66 -15 -11 -27 -16 -28 -11 -7 66 -4 78 19 100 14 13 28 23 31 23 3
0 6 -21 5 -46z m-86 -78 c-1 -36 -6 -46 -30 -60 -15 -10 -28 -16 -29 -14 -10
34 -2 75 19 99 30 37 43 29 40 -25z m-89 -38 c1 -29 3 -109 6 -178 18 -447 18
-449 -7 -470 -13 -11 -25 -19 -28 -20 -3 0 -6 26 -6 58 -2 88 -13 384 -19 506
-5 103 -4 111 17 133 12 13 25 23 29 23 4 0 8 -24 8 -52z m-81 -100 c2 -46 5
-130 7 -188 16 -394 16 -398 -7 -420 -12 -11 -23 -18 -26 -15 -6 6 -12 116
-27 518 -6 144 -5 149 16 168 12 10 25 19 29 19 3 0 7 -37 8 -82z m434 -110
c2 -13 1 -42 -3 -65 -3 -23 -2 -47 1 -54 12 -19 -1 -48 -30 -69 l-28 -20 -1
96 c-2 88 0 97 21 114 30 25 36 25 40 -2z m-86 -135 c0 -87 -2 -100 -21 -115
-11 -10 -23 -17 -26 -18 -4 0 -7 45 -8 99 -2 92 0 100 19 106 11 3 20 11 20
16 0 5 3 9 8 9 4 0 7 -44 8 -97z m-85 10 c5 -150 4 -164 -18 -185 -13 -12 -25
-19 -28 -16 -3 2 -6 45 -8 94 -3 80 -1 91 17 106 27 22 36 22 37 1z m-80 -141
c3 -81 1 -94 -16 -107 -35 -26 -40 -18 -42 75 -2 85 -1 90 24 110 14 11 27 19
29 18 1 -2 4 -45 5 -96z"/>
<path d="M2326 3862 c-8 -14 -10 -87 -2 -100 4 -7 4 -12 -1 -12 -13 0 -13
-621 0 -634 7 -6 39 -31 72 -55 33 -25 62 -47 65 -51 3 -3 21 -17 40 -30 19
-13 37 -27 40 -30 14 -18 420 -320 429 -320 6 0 11 6 12 13 0 6 2 37 4 67 2
30 6 102 9 160 4 58 9 148 11 200 2 52 7 139 10 192 l5 96 -32 24 c-18 12 -42
30 -53 39 -11 10 -108 83 -215 163 -107 80 -208 156 -224 168 -16 13 -34 25
-40 27 -6 2 -18 12 -27 23 -9 10 -21 18 -28 18 -6 0 -11 4 -11 8 0 12 -58 43
-64 34z m51 -60 c13 -9 23 -28 24 -42 2 -38 -11 -654 -14 -656 -1 -1 -13 7
-26 17 -24 19 -24 23 -22 152 1 73 3 225 4 339 1 115 4 208 7 208 3 0 15 -8
27 -18z m104 -91 c1 -20 1 -45 -5 -385 -3 -153 -6 -280 -8 -281 -2 -2 -14 5
-28 15 l-24 18 3 209 c3 211 8 437 10 461 1 19 51 -16 52 -37z m64 -63 c20
-17 25 -31 25 -65 l0 -44 -30 21 c-26 18 -30 28 -30 66 0 24 2 44 5 44 3 0 16
-10 30 -22z m87 -65 c12 -11 18 -30 18 -60 0 -42 -1 -43 -22 -32 -13 7 -26 16
-29 21 -5 8 -5 72 0 86 3 6 16 0 33 -15z m-97 -53 c4 -6 46 -40 93 -75 48 -35
92 -68 97 -72 6 -5 29 -23 51 -41 l42 -32 -5 -122 c-3 -68 -6 -133 -6 -145 -1
-13 -3 -23 -6 -23 -4 0 -71 50 -151 111 l-145 111 0 149 c0 109 3 149 12 149
6 0 15 -5 18 -10z m181 -11 c18 -17 21 -28 17 -58 -7 -46 -8 -47 -32 -24 -22
20 -36 103 -17 103 5 0 20 -9 32 -21z m70 -51 c8 -7 20 -18 27 -24 8 -7 11
-27 9 -53 -4 -39 -5 -41 -21 -27 -10 9 -22 16 -28 16 -11 0 -21 53 -15 83 4
20 8 21 28 5z m102 -46 c17 -15 20 -27 17 -78 -5 -85 -17 -350 -19 -409 -1
-27 -5 -55 -9 -62 -4 -6 -3 -14 3 -18 6 -4 8 -10 5 -15 -3 -5 -6 -31 -6 -59
-1 -44 -4 -49 -19 -41 -35 19 -39 35 -35 121 2 46 7 149 11 229 3 80 7 172 9
205 1 33 3 79 4 103 1 46 8 51 39 24z m81 -63 c22 -20 22 -26 16 -123 -3 -55
-8 -150 -10 -211 -3 -60 -8 -153 -11 -205 -4 -52 -6 -108 -6 -123 1 -29 -6
-29 -40 0 -13 12 -15 28 -12 86 2 40 6 135 9 212 4 77 8 167 9 200 2 33 5 88
6 123 2 34 6 62 10 62 3 0 16 -10 29 -21z m-432 -178 c19 -18 20 -29 18 -108
-2 -48 -4 -89 -4 -91 -1 -2 -13 5 -28 16 -30 21 -29 18 -24 185 1 22 12 22 38
-2z m78 -57 c18 -13 20 -27 20 -109 0 -52 -2 -95 -5 -95 -3 0 -16 7 -28 16
-20 14 -22 23 -22 110 0 52 3 94 8 94 4 0 16 -7 27 -16z m83 -64 c19 -18 21
-28 18 -106 -2 -47 -7 -88 -10 -91 -3 -4 -15 2 -25 11 -17 15 -20 31 -19 112
1 52 4 94 8 94 3 0 16 -9 28 -20z m105 -107 c-1 -15 -4 -58 -5 -94 l-2 -66
-28 16 c-28 16 -28 17 -27 114 l1 98 31 -20 c25 -16 32 -26 30 -48z"/>
<path d="M2234 3018 c-38 -29 -73 -56 -79 -61 -13 -11 -227 -172 -345 -260
-108 -81 -103 -77 -150 -116 -19 -17 -32 -31 -30 -34 3 -2 32 -24 65 -48 50
-37 266 -201 441 -335 23 -17 48 -36 55 -43 47 -39 106 -81 115 -81 6 0 22 10
36 23 13 12 53 47 88 77 35 30 76 66 91 80 14 14 56 52 93 85 37 33 85 76 105
95 36 33 146 131 198 175 29 26 29 36 1 54 -21 13 -358 261 -521 383 -43 32
-82 58 -86 58 -4 0 -39 -23 -77 -52z"/>
<path d="M126 2126 l-126 -121 0 -337 0 -337 125 1 c69 1 125 4 125 7 1 3 1
155 1 337 l1 331 114 -2 c111 -2 116 -3 144 -30 54 -52 50 -113 -11 -173 -30
-30 -38 -32 -101 -32 l-68 0 0 -99 0 -99 158 0 157 0 57 59 c32 33 71 89 90
126 29 60 33 77 33 148 0 70 -4 88 -32 145 -33 67 -96 142 -148 176 -26 17
-48 19 -211 20 l-181 0 -127 -120z"/>
<path d="M3263 2058 c-98 -98 -185 -182 -193 -187 -13 -8 -15 14 -15 175 0
101 -3 183 -6 182 -4 -2 -66 -59 -139 -128 -219 -208 -254 -240 -258 -236 -3
4 -13 188 -16 313 0 29 -4 52 -8 50 -3 -1 -57 -51 -120 -112 l-113 -110 0
-325 c0 -205 4 -326 10 -327 9 -2 167 143 328 300 28 26 51 46 52 45 3 -3 8
-64 21 -218 8 -108 11 -130 16 -135 4 -4 898 878 898 886 0 3 -63 5 -139 5
l-139 0 -179 -178z"/>
<path d="M1823 2055 c-97 -29 -168 -90 -205 -173 -26 -58 -29 -74 -32 -167 -3
-91 11 -156 47 -218 66 -111 163 -159 323 -158 238 1 372 146 359 390 -9 166
-78 270 -212 317 -69 25 -214 29 -280 9z m209 -177 c48 -34 62 -73 62 -173 -1
-136 -35 -190 -129 -202 -57 -7 -117 25 -141 76 -22 46 -27 173 -9 225 33 95
138 131 217 74z"/>
<path d="M3546 1965 c-57 -55 -172 -167 -256 -248 l-152 -149 0 -110 c0 -60 2
-111 4 -113 2 -2 46 38 98 88 174 168 362 342 371 345 5 2 9 -39 9 -91 l0 -95
-75 1 c-67 1 -76 -2 -94 -24 -10 -13 -31 -37 -46 -54 -14 -16 -40 -47 -56 -67
l-31 -38 151 0 150 0 3 -52 3 -53 98 0 97 0 -2 378 -3 379 -83 1 -83 2 -103
-100z"/>
<path d="M4418 2059 c-8 -5 -13 -413 -8 -711 l0 -28 215 0 c198 0 215 1 216
18 1 9 2 50 3 90 l1 72 -127 0 -128 0 0 38 c-1 20 -1 146 0 280 l0 242 -27 1
c-16 0 -52 1 -81 2 -30 1 -58 -1 -64 -4z"/>
<path d="M3904 1689 c1 -291 3 -369 13 -370 7 0 92 0 188 0 96 0 189 0 205 0
l30 1 0 88 0 87 -121 0 c-66 0 -123 2 -128 5 -4 3 -7 129 -7 280 l1 275 -90 2
-91 1 0 -369z"/>
<path d="M991 1946 l-91 -91 0 -262 0 -261 88 1 87 2 3 258 2 257 33 1 c142 4
169 1 189 -18 26 -27 26 -74 -1 -112 -21 -29 -27 -31 -81 -31 l-59 0 61 -57
c63 -60 100 -95 230 -220 42 -40 78 -73 81 -73 3 0 5 47 5 104 l-1 104 -59 42
-58 43 36 36 c91 91 89 220 -4 331 l-30 35 -170 1 -171 1 -90 -91z"/>
<path d="M15 1130 l0 -75 1142 -3 1143 -2 0 77 0 78 -1143 0 -1142 0 0 -75z"/>
<path d="M2419 1192 c-5 -147 -11 -132 56 -136 54 -3 89 39 79 94 -9 41 -27
53 -85 57 -41 2 -49 0 -50 -15z m87 -37 c10 -26 -5 -67 -24 -63 -16 3 -26 50
-15 71 7 13 33 8 39 -8z"/>
<path d="M2580 1135 c0 -39 3 -74 6 -77 15 -16 43 6 46 36 l3 31 19 -32 c17
-28 57 -48 70 -36 3 3 -4 19 -14 36 -12 19 -15 34 -9 37 13 9 19 44 9 60 -5 8
-31 14 -69 15 l-61 2 0 -72z m88 28 c2 -8 -5 -13 -17 -13 -12 0 -21 6 -21 16
0 18 31 15 38 -3z"/>
<path d="M2745 1183 c10 -15 24 -37 32 -48 7 -11 13 -34 13 -51 0 -27 3 -31
23 -27 17 3 22 12 23 36 1 32 48 114 57 100 3 -5 10 -36 17 -70 17 -87 60 -95
76 -14 8 37 15 33 29 -16 10 -36 38 -52 52 -31 10 17 32 132 27 140 -12 20
-33 5 -42 -29 -8 -32 -10 -35 -16 -18 -14 37 -22 48 -39 51 -19 3 -36 -23 -38
-58 -1 -17 -4 -12 -13 17 -12 37 -15 39 -55 41 -42 1 -71 -15 -71 -39 -1 -7
-9 -2 -20 11 -10 13 -31 25 -46 28 l-27 5 18 -28z"/>
<path d="M3152 1190 c-3 -8 -13 -37 -24 -63 -10 -26 -18 -54 -18 -61 0 -17 25
-15 42 2 14 14 58 16 58 3 0 -12 39 -21 46 -10 3 5 -6 41 -21 79 -24 62 -29
69 -52 68 -14 -2 -28 -9 -31 -18z m41 -79 c-9 -12 -23 18 -16 35 6 17 8 17 13
-6 4 -14 5 -27 3 -29z"/>
<path d="M3284 1196 c-3 -8 -4 -43 -2 -77 l3 -63 58 -1 c52 -1 57 1 57 20 0
18 -5 21 -35 20 -29 -2 -35 1 -36 19 -3 85 -5 91 -22 94 -9 2 -20 -3 -23 -12z"/>
<path d="M3420 1134 c0 -52 4 -74 13 -75 84 -8 114 -1 104 24 -4 11 -15 14
-36 11 l-31 -5 0 55 c0 31 -3 56 -7 57 -5 0 -16 2 -25 4 -16 3 -18 -6 -18 -71z"/>
<path d="M3646 1197 c-32 -24 -17 -59 33 -78 43 -15 44 -17 23 -28 -18 -10
-23 -9 -28 4 -7 16 -39 21 -48 6 -10 -16 20 -43 50 -43 53 -1 63 2 74 22 18
33 3 58 -41 71 -26 8 -36 16 -30 22 7 7 15 7 23 0 18 -14 48 -12 48 3 0 31
-71 45 -104 21z"/>
<path d="M3786 1201 c-2 -3 -3 -37 -2 -76 l1 -69 63 -1 c53 0 62 3 62 17 0 14
-9 18 -40 18 -29 0 -40 4 -40 15 0 10 11 15 35 15 24 0 35 5 35 15 0 10 -11
15 -35 15 -35 0 -51 19 -17 21 9 1 22 2 27 4 6 1 16 3 23 3 8 1 12 8 10 15 -5
12 -116 19 -122 8z"/>
<path d="M3939 1205 c-1 0 -2 -32 -3 -72 -2 -67 -1 -72 20 -76 20 -3 23 1 26
32 l3 36 25 -35 c14 -20 31 -35 38 -34 6 1 17 2 23 3 6 0 3 15 -9 35 -17 28
-18 35 -6 40 17 7 19 52 2 63 -10 5 -109 13 -119 8z m81 -41 c0 -8 -9 -14 -20
-14 -11 0 -20 6 -20 13 0 7 9 13 20 14 11 1 20 -4 20 -13z"/>
<path d="M4090 1197 c0 -16 39 -119 51 -134 11 -13 35 -12 48 3 9 10 51 119
51 134 0 5 -9 8 -20 7 -14 -1 -24 -15 -36 -50 -9 -26 -18 -46 -20 -44 -3 2
-10 23 -17 47 -9 32 -18 44 -35 46 -13 2 -22 -1 -22 -9z"/>
<path d="M4267 1202 c-4 -6 -2 -126 2 -144 0 -3 9 -5 19 -4 14 2 17 15 20 77
3 69 1 75 -17 76 -12 1 -22 -1 -24 -5z"/>
<path d="M4360 1190 c-30 -30 -27 -93 5 -118 40 -32 115 -16 115 23 0 20 -33
23 -47 5 -9 -11 -16 -12 -30 -4 -15 9 -19 24 -14 64 1 12 51 13 51 1 0 -5 9
-7 20 -4 26 7 25 18 -2 37 -31 22 -74 20 -98 -4z"/>
<path d="M4509 1196 c-6 -61 -3 -121 8 -131 6 -7 29 -11 50 -10 21 2 46 4 56
4 33 2 12 26 -27 31 -51 6 -61 30 -13 30 22 0 37 6 41 15 4 12 -3 15 -34 15
-22 0 -40 5 -40 10 0 10 11 12 58 13 14 0 22 6 22 17 0 13 -11 16 -60 17 -37
0 -60 -4 -61 -11z"/>
<path d="M4670 1190 c-27 -27 -13 -54 35 -70 36 -12 44 -23 23 -36 -6 -4 -16
0 -23 9 -11 15 -55 20 -55 7 0 -33 65 -56 106 -38 50 23 41 72 -17 89 -21 7
-39 16 -39 21 0 11 28 10 35 -2 8 -13 45 -13 45 -1 0 19 -32 41 -61 41 -16 0
-38 -9 -49 -20z"/>
</g>
</svg>
